<svg xmlns="http://www.w3.org/2000/svg" viewBox="0 0 1920 47.72"><title>section_separator</title><g id="Layer_2" data-name="Layer 2"><g id="Layer_1-2" data-name="Layer 1"><path d="M1920,30.24,1840.29,18s-75.89,3.5-92.15,0-40.65,7-67.76,0,5.42,2-56.91-.73-51.5,11.49-108.42,0S1482.53,7.53,1439.17,4s35.23-7-89.44,0S1230.47,19.22,1211.5,15.12s9,.61-48.37,0-12.38-1.14-91.77,0-63.79-2.89-102.76,0S853.29,25,844,30.24s-44.49,5.25-79.73,0S753.46,40.73,702,25,642.34,4,620.66,9.28,580,26.75,558.32,26.75s-40.65,14-84,0-40.65-3.6-65.05-9.66-8.13.82-37.94,0-59.63-6.17-70.47,0,17.09,4.42-42.95,7.91-47.54,20.1-82.25,9.18S48.79,19.83,35.23,18.92L21.68,18,0,28.5V47.72H1920Z"/></g></g></svg>