<svg xmlns="http://www.w3.org/2000/svg" viewBox="0 0 47.72 827.63"><title>section_separator2</title><g id="Layer_2" data-name="Layer 2"><g id="Layer_1-2" data-name="Layer 1"><path d="M30.24,0,18,34.36s3.5,32.71,0,39.72,7,17.53,0,29.21,2-2.34-.73,24.53,11.49,22.2,0,46.73S7.53,188.57,4,207.27s-7-15.19,0,38.55,15.18,51.41,11.08,59.58S8,304.18,7.37,328.9s6.61,2.69,7.75,36.91-2.89,27.5,0,44.3S25,459.81,30.24,463.8s5.25,19.18,0,34.37S40.73,502.85,25,525,4,550.75,9.28,560.09,26.75,577.62,26.75,587s14,17.53,0,36.22-3.6,17.52-9.66,28,.82,3.5,0,16.35-6.17,25.71,0,30.38,4.42-7.37,7.91,18.51,20.1,20.5,9.18,35.46S19.83,806.6,18.92,812.44L18,818.28l10.49,9.35H47.72V0Z"/></g></g></svg>